<svg xmlns="http://www.w3.org/2000/svg" viewBox="0 0 16 16" width="16" height="16"><rect width="16" height="16" rx="3" fill="#7c3aed"/><path fill="#f6f8fa" d="M3.25 3.25a.75.75 0 0 1 .75-.75h8a.75.75 0 0 1 0 1.5H4a.75.75 0 0 1-.75-.75Zm0 3.2a.75.75 0 0 1 .75-.75h8a.75.75 0 0 1 0 1.5H4a.75.75 0 0 1-.75-.75Zm0 3.2a.75.75 0 0 1 .75-.75h4.6a.75.75 0 0 1 0 1.5H4a.75.75 0 0 1-.75-.75Zm8.06.34 2.37 2.36a.75.75 0 1 1-1.06 1.06l-2.37-2.36a2.6 2.6 0 1 1 1.06-1.06Zm-2.31-.74a1.1 1.1 0 1 0 0-2.2 1.1 1.1 0 0 0 0 2.2Z"/></svg>
